<svg width="207" height="72" viewBox="0 0 207 72" fill="none" xmlns="http://www.w3.org/2000/svg">
<path d="M38 13.6667H1.99999C1.64637 13.6667 1.30723 13.8071 1.05718 14.0572C0.807132 14.3072 0.666656 14.6464 0.666656 15V33.6666H39.3333V15C39.3333 14.6464 39.1928 14.3072 38.9428 14.0572C38.6927 13.8071 38.3536 13.6667 38 13.6667Z" fill="#00B0FF"/>
<path d="M39.3333 33.6666V36.3333C39.3323 36.6866 39.1915 37.0251 38.9416 37.2749C38.6918 37.5248 38.3533 37.6656 38 37.6666H1.99999C1.64669 37.6656 1.30817 37.5248 1.05835 37.2749C0.808526 37.0251 0.667712 36.6866 0.666656 36.3333V33.6666H39.3333Z" fill="#E0E0E2"/>
<path d="M32.6667 11V27C32.6656 27.3533 32.5248 27.6918 32.275 27.9416C32.0252 28.1914 31.6866 28.3323 31.3333 28.3333H8.66668C8.31338 28.3323 7.97485 28.1914 7.72503 27.9416C7.47521 27.6918 7.3344 27.3533 7.33334 27V11H32.6667Z" fill="#46F8FF"/>
<path d="M32.6666 11V27C32.6656 27.3533 32.5248 27.6918 32.275 27.9416C32.0251 28.1914 31.6866 28.3323 31.3333 28.3333H28.6666C29.0199 28.3323 29.3585 28.1914 29.6083 27.9416C29.8581 27.6918 29.9989 27.3533 30 27V11H32.6666Z" fill="#00E7F0"/>
<path d="M32.6667 7V11H7.33334V7C7.3344 6.6467 7.47521 6.30817 7.72503 6.05835C7.97485 5.80853 8.31338 5.66772 8.66668 5.66666H31.3333C31.6866 5.66772 32.0252 5.80853 32.275 6.05835C32.5248 6.30817 32.6656 6.6467 32.6667 7Z" fill="#FFDE55"/>
<path d="M32.6666 7V11H30V7C29.9989 6.6467 29.8581 6.30817 29.6083 6.05835C29.3585 5.80853 29.0199 5.66772 28.6666 5.66666H31.3333C31.6866 5.66772 32.0251 5.80853 32.275 6.05835C32.5248 6.30817 32.6656 6.6467 32.6666 7Z" fill="#FFCD00"/>
<path d="M27.3333 41.6666L29.3333 44.3333H10.6667L12.6667 41.6666H15.3333H24.6667H27.3333Z" fill="#E0E0E2"/>
<path d="M24 37.6666L24.6667 41.6666H15.3334L16 37.6666H24Z" fill="#00B0FF"/>
<path d="M39.3333 15V33.6666H36V15C35.9989 14.6467 35.8581 14.3082 35.6083 14.0583C35.3585 13.8085 35.0199 13.6677 34.6666 13.6667H38C38.3533 13.6677 38.6918 13.8085 38.9416 14.0583C39.1914 14.3082 39.3323 14.6467 39.3333 15V15Z" fill="#00B0FF"/>
<path d="M39.3333 33.6666V36.3333C39.3323 36.6866 39.1914 37.0251 38.9416 37.2749C38.6918 37.5248 38.3533 37.6656 38 37.6666H34.6666C35.0199 37.6656 35.3585 37.5248 35.6083 37.2749C35.8581 37.0251 35.9989 36.6866 36 36.3333V33.6666H39.3333Z" fill="#C6C5CA"/>
<path d="M29.3333 44.3333H26L24 41.6666H27.3333L29.3333 44.3333Z" fill="#C6C5CA"/>
<path d="M24.6666 41.6666H21.3333L20.6666 37.6666H24L24.6666 41.6666Z" fill="#00B0FF"/>
<path d="M38 13H33.3333V7C33.3318 6.47005 33.1205 5.96226 32.7458 5.58753C32.3711 5.2128 31.8633 5.00158 31.3333 5H8.66667C8.13672 5.00158 7.62893 5.2128 7.2542 5.58753C6.87947 5.96226 6.66825 6.47005 6.66667 7V13H2C1.47005 13.0016 0.962265 13.2128 0.587535 13.5875C0.212805 13.9623 0.00158273 14.47 0 15V36.3333C0.00158273 36.8632 0.212805 37.371 0.587535 37.7458C0.962265 38.1205 1.47005 38.3317 2 38.3333H15.2133L14.7667 41H12.6667C12.5633 41.0007 12.4615 41.0251 12.369 41.0713C12.2765 41.1175 12.1959 41.1844 12.1333 41.2666L10.1333 43.9333C10.0592 44.0328 10.0142 44.1511 10.0036 44.2747C9.99304 44.3984 10.0172 44.5226 10.0733 44.6333C10.1273 44.7444 10.2117 44.8378 10.3168 44.9027C10.4218 44.9677 10.5432 45.0014 10.6667 45H29.3333C29.4568 45.0014 29.5782 44.9677 29.6832 44.9027C29.7883 44.8378 29.8727 44.7444 29.9267 44.6333C29.9828 44.5226 30.007 44.3984 29.9964 44.2747C29.9858 44.1511 29.9408 44.0328 29.8667 43.9333L27.8667 41.2666C27.8041 41.1844 27.7235 41.1175 27.631 41.0713C27.5385 41.0251 27.4367 41.0007 27.3333 41H25.2333L24.7867 38.3333H38C38.5299 38.3317 39.0377 38.1205 39.4125 37.7458C39.7872 37.371 39.9984 36.8632 40 36.3333V15C39.9984 14.47 39.7872 13.9623 39.4125 13.5875C39.0377 13.2128 38.5299 13.0016 38 13V13ZM8 7C8 6.82319 8.07024 6.65362 8.19526 6.52859C8.32029 6.40357 8.48986 6.33333 8.66667 6.33333H31.3333C31.5101 6.33333 31.6797 6.40357 31.8047 6.52859C31.9298 6.65362 32 6.82319 32 7V10.3333H8V7ZM8 11.6667H32V27C32 27.1768 31.9298 27.3464 31.8047 27.4714C31.6797 27.5964 31.5101 27.6666 31.3333 27.6666H8.66667C8.48986 27.6666 8.32029 27.5964 8.19526 27.4714C8.07024 27.3464 8 27.1768 8 27V11.6667ZM27 42.3333L28 43.6666H12L13 42.3333H27ZM16.12 41L16.5667 38.3333H23.4333L23.88 41H16.12ZM38.6667 36.3333C38.6667 36.5101 38.5964 36.6797 38.4714 36.8047C38.3464 36.9297 38.1768 37 38 37H2C1.82319 37 1.65362 36.9297 1.5286 36.8047C1.40357 36.6797 1.33333 36.5101 1.33333 36.3333V34.3333H38.6667V36.3333ZM38.6667 33H1.33333V15C1.33333 14.8232 1.40357 14.6536 1.5286 14.5286C1.65362 14.4036 1.82319 14.3333 2 14.3333H6.66667V27C6.66825 27.5299 6.87947 28.0377 7.2542 28.4124C7.62893 28.7872 8.13672 28.9984 8.66667 29H11.3333V30.3333H6.66667V31.6666H12C12.1768 31.6666 12.3464 31.5964 12.4714 31.4714C12.5964 31.3464 12.6667 31.1768 12.6667 31V29H16.6667V31.6666H18V29H22V31.6666H23.3333V29H27.3333V31C27.3333 31.1768 27.4036 31.3464 27.5286 31.4714C27.6536 31.5964 27.8232 31.6666 28 31.6666H33.3333V30.3333H28.6667V29H31.3333C31.8633 28.9984 32.3711 28.7872 32.7458 28.4124C33.1205 28.0377 33.3318 27.5299 33.3333 27V14.3333H38C38.1768 14.3333 38.3464 14.4036 38.4714 14.5286C38.5964 14.6536 38.6667 14.8232 38.6667 15V33Z" fill="black" fill-opacity="0.7"/>
<path d="M29.3334 7.66666H30.6667V9H29.3334V7.66666Z" fill="black" fill-opacity="0.7"/>
<path d="M26.6667 7.66666H28V9H26.6667V7.66666Z" fill="black" fill-opacity="0.7"/>
<path d="M24 7.66666H25.3333V9H24V7.66666Z" fill="black" fill-opacity="0.7"/>
<path d="M16.1953 15.1953L12.1953 19.1953C12.0704 19.3203 12.0002 19.4899 12.0002 19.6667C12.0002 19.8434 12.0704 20.013 12.1953 20.138L16.1953 24.138L17.138 23.1953L13.6093 19.6667L17.138 16.138L16.1953 15.1953Z" fill="black" fill-opacity="0.7"/>
<path d="M23.8047 15.1953L22.862 16.138L26.3907 19.6667L22.862 23.1953L23.8047 24.138L27.8047 20.138C27.9296 20.013 27.9999 19.8434 27.9999 19.6667C27.9999 19.4899 27.9296 19.3203 27.8047 19.1953L23.8047 15.1953Z" fill="black" fill-opacity="0.7"/>
<path d="M17.3668 25.4441L21.3639 13.4399L22.6293 13.8612L18.6321 25.8654L17.3668 25.4441Z" fill="black" fill-opacity="0.7"/>
<path d="M54.2734 37V19.2266H60.6577C62.9445 19.2266 64.682 19.6457 65.8701 20.4839C67.0664 21.3221 67.6646 22.5387 67.6646 24.1338C67.6646 25.0534 67.453 25.8387 67.0298 26.4897C66.6066 27.1408 65.984 27.6209 65.1621 27.9302C66.0898 28.1743 66.8019 28.63 67.2983 29.2974C67.7948 29.9647 68.043 30.7785 68.043 31.7388C68.043 33.4803 67.4896 34.7905 66.3828 35.6694C65.2842 36.5402 63.6525 36.9837 61.4878 37H54.2734ZM58.5581 29.4438V33.7041H61.3657C62.1388 33.7041 62.7329 33.5291 63.1479 33.1792C63.563 32.8211 63.7705 32.3206 63.7705 31.6777C63.7705 30.1966 63.034 29.452 61.561 29.4438H58.5581ZM58.5581 26.6362H60.792C61.7279 26.6281 62.3952 26.4572 62.7939 26.1235C63.1927 25.7899 63.3921 25.2975 63.3921 24.6465C63.3921 23.8978 63.1764 23.3607 62.7451 23.0352C62.3138 22.7015 61.618 22.5347 60.6577 22.5347H58.5581V26.6362ZM78.2114 27.5151L76.8564 27.4175C75.5625 27.4175 74.7324 27.8244 74.3662 28.6382V37H70.2524V23.792H74.1099L74.2441 25.4888C74.9359 24.1948 75.9002 23.5479 77.1372 23.5479C77.5767 23.5479 77.9591 23.5967 78.2847 23.6943L78.2114 27.5151ZM78.7363 30.2739C78.7363 28.9556 78.9927 27.7837 79.5054 26.7583C80.0181 25.7248 80.7546 24.9313 81.7148 24.3779C82.6751 23.8245 83.8022 23.5479 85.0962 23.5479C87.0737 23.5479 88.6322 24.1623 89.7715 25.3911C90.9108 26.6118 91.4805 28.276 91.4805 30.3838V30.5303C91.4805 32.5892 90.9067 34.2249 89.7593 35.4375C88.62 36.6419 87.0737 37.2441 85.1206 37.2441C83.2407 37.2441 81.7311 36.6826 80.5918 35.5596C79.4525 34.4284 78.8381 32.8984 78.7485 30.9697L78.7363 30.2739ZM82.8501 30.5303C82.8501 31.751 83.0413 32.6462 83.4238 33.2158C83.8063 33.7855 84.3719 34.0703 85.1206 34.0703C86.5854 34.0703 87.3341 32.9432 87.3667 30.689V30.2739C87.3667 27.9058 86.6099 26.7217 85.0962 26.7217C83.7209 26.7217 82.9762 27.743 82.8623 29.7856L82.8501 30.5303ZM92.811 30.2983C92.811 28.9637 93.0308 27.7837 93.4702 26.7583C93.9097 25.7329 94.5404 24.9435 95.3623 24.3901C96.1842 23.8286 97.1405 23.5479 98.231 23.5479C99.6063 23.5479 100.681 24.0117 101.454 24.9395L101.6 23.792H105.335V36.4995C105.335 37.6632 105.063 38.6724 104.518 39.5269C103.98 40.3895 103.199 41.0487 102.174 41.5044C101.148 41.9683 99.9603 42.2002 98.6094 42.2002C97.641 42.2002 96.701 42.0171 95.7896 41.6509C94.8862 41.2847 94.1945 40.8086 93.7144 40.2227L95.4355 37.8057C96.2005 38.709 97.2096 39.1606 98.4629 39.1606C100.286 39.1606 101.197 38.2248 101.197 36.353V35.938C100.408 36.8088 99.411 37.2441 98.2065 37.2441C96.5952 37.2441 95.2931 36.6297 94.3003 35.4009C93.3075 34.1639 92.811 32.5119 92.811 30.4448V30.2983ZM96.937 30.5547C96.937 31.637 97.1405 32.4956 97.5474 33.1304C97.9543 33.757 98.5239 34.0703 99.2563 34.0703C100.143 34.0703 100.79 33.7733 101.197 33.1792V27.625C100.799 27.0228 100.16 26.7217 99.2808 26.7217C98.5483 26.7217 97.9746 27.0513 97.5596 27.7104C97.1445 28.3615 96.937 29.3096 96.937 30.5547ZM115.663 27.5151L114.308 27.4175C113.014 27.4175 112.184 27.8244 111.817 28.6382V37H107.704V23.792H111.561L111.695 25.4888C112.387 24.1948 113.351 23.5479 114.588 23.5479C115.028 23.5479 115.41 23.5967 115.736 23.6943L115.663 27.5151ZM124.22 37C124.073 36.7314 123.943 36.3368 123.829 35.8159C123.072 36.7681 122.014 37.2441 120.655 37.2441C119.41 37.2441 118.352 36.8698 117.481 36.1211C116.611 35.3643 116.175 34.4162 116.175 33.2769C116.175 31.8446 116.704 30.7622 117.762 30.0298C118.82 29.2974 120.358 28.9312 122.376 28.9312H123.646V28.2354C123.646 27.0228 123.121 26.4165 122.071 26.4165C121.095 26.4165 120.606 26.8966 120.606 27.8569H116.493C116.493 26.5793 117.034 25.5417 118.116 24.7441C119.207 23.9466 120.594 23.5479 122.279 23.5479C123.963 23.5479 125.294 23.9588 126.271 24.7808C127.247 25.6027 127.748 26.7298 127.772 28.1621V34.0093C127.788 35.2218 127.975 36.1496 128.333 36.7925V37H124.22ZM121.644 34.3145C122.157 34.3145 122.58 34.2046 122.914 33.9849C123.255 33.7651 123.5 33.5169 123.646 33.2402V31.1284H122.45C121.017 31.1284 120.301 31.7713 120.301 33.0571C120.301 33.4315 120.427 33.7367 120.68 33.9727C120.932 34.2005 121.253 34.3145 121.644 34.3145ZM133.949 23.792L134.083 25.3423C135.019 24.146 136.276 23.5479 137.855 23.5479C139.523 23.5479 140.65 24.2111 141.236 25.5376C142.132 24.2111 143.425 23.5479 145.118 23.5479C147.796 23.5479 149.171 25.1673 149.244 28.4062V37H145.118V28.6626C145.118 27.9871 145.004 27.4948 144.776 27.1855C144.549 26.8763 144.133 26.7217 143.531 26.7217C142.717 26.7217 142.111 27.0838 141.712 27.8081L141.725 27.979V37H137.599V28.687C137.599 27.9953 137.489 27.4948 137.269 27.1855C137.049 26.8763 136.63 26.7217 136.012 26.7217C135.222 26.7217 134.62 27.0838 134.205 27.8081V37H130.091V23.792H133.949ZM155.482 23.792L155.616 25.3423C156.552 24.146 157.809 23.5479 159.388 23.5479C161.056 23.5479 162.184 24.2111 162.77 25.5376C163.665 24.2111 164.959 23.5479 166.651 23.5479C169.329 23.5479 170.704 25.1673 170.777 28.4062V37H166.651V28.6626C166.651 27.9871 166.537 27.4948 166.31 27.1855C166.082 26.8763 165.667 26.7217 165.064 26.7217C164.251 26.7217 163.644 27.0838 163.246 27.8081L163.258 27.979V37H159.132V28.687C159.132 27.9953 159.022 27.4948 158.802 27.1855C158.583 26.8763 158.163 26.7217 157.545 26.7217C156.756 26.7217 156.153 27.0838 155.738 27.8081V37H151.625V23.792H155.482ZM179.518 37.2441C177.491 37.2441 175.851 36.6419 174.598 35.4375C173.345 34.2249 172.718 32.6502 172.718 30.7134V30.3716C172.718 29.0207 172.966 27.8285 173.463 26.7949C173.967 25.7614 174.7 24.9639 175.66 24.4023C176.62 23.8327 177.76 23.5479 179.078 23.5479C180.934 23.5479 182.398 24.1257 183.473 25.2812C184.547 26.4287 185.084 28.0319 185.084 30.0908V31.6899H176.905C177.052 32.4305 177.373 33.0124 177.87 33.4355C178.366 33.8587 179.009 34.0703 179.798 34.0703C181.1 34.0703 182.118 33.6146 182.85 32.7031L184.73 34.9248C184.217 35.6328 183.489 36.1984 182.545 36.6216C181.609 37.0366 180.6 37.2441 179.518 37.2441ZM179.054 26.7217C177.849 26.7217 177.133 27.5192 176.905 29.1143H181.056V28.7969C181.072 28.1377 180.905 27.6291 180.555 27.271C180.205 26.9048 179.705 26.7217 179.054 26.7217ZM194.74 27.5151L193.385 27.4175C192.091 27.4175 191.261 27.8244 190.895 28.6382V37H186.781V23.792H190.638L190.772 25.4888C191.464 24.1948 192.429 23.5479 193.666 23.5479C194.105 23.5479 194.487 23.5967 194.813 23.6943L194.74 27.5151Z" fill="#00B0FF"/>
<path d="M48.4736 45.6689H44.6104V9.42969H48.4736V45.6689Z" fill="#00B0FF"/>
</svg>
